<svg width="58" height="43" viewBox="0 0 58 43" fill="none" xmlns="http://www.w3.org/2000/svg">
<path d="M54.1566 17.0664L25.7889 0.922686C21.9536 -1.24294 18.9119 0.528936 18.9119 4.92581V24.4821C18.9119 24.5477 18.9119 24.6133 18.978 24.6789H19.0441C19.3747 23.3664 19.6392 22.1852 19.9699 20.8727L21.2924 15.4914H24.2019L20.6311 27.3039H18.9119V37.0821C18.9119 41.4789 22.0198 43.2508 25.7889 41.0852L54.1566 24.9414C57.9919 22.7758 57.9919 19.2321 54.1566 17.0664ZM33.1288 27.3039H25.3921V15.4914H32.9304V17.8539H28.2355V20.0196H32.203V22.3821H28.2355V24.9414H33.0627V27.3039H33.1288Z" fill="white"/>
<path d="M2.84339 15.4914H0V27.3039H7.47216V24.9414H2.84339V15.4914Z" fill="white"/>
<path d="M12.3654 15.4914H9.52203V27.3039H12.3654V15.4914Z" fill="white"/>
<path d="M17.9861 20.8727L16.5974 15.4914H13.5557L17.1264 27.3039H18.8457V24.482C18.5812 23.2352 18.3167 22.0539 17.9861 20.8727Z" fill="white"/>
</svg>
